<mxfile host="Electron" modified="2023-08-16T10:48:19.410Z" agent="Mozilla/5.0 (Windows NT 10.0; Win64; x64) AppleWebKit/537.36 (KHTML, like Gecko) draw.io/21.6.5 Chrome/114.0.5735.243 Electron/25.3.1 Safari/537.36" etag="x5vaqZFVYGuLSKZ1Ao30" version="21.6.5" type="device">
  <diagram name="Page-1" id="tUAgtzePKxLx7CmB5Ayd">
    <mxGraphModel dx="2200" dy="1190" grid="1" gridSize="10" guides="1" tooltips="1" connect="1" arrows="1" fold="1" page="1" pageScale="1" pageWidth="1100" pageHeight="850" math="0" shadow="0">
      <root>
        <mxCell id="0" />
        <mxCell id="1" parent="0" />
        <mxCell id="fWh1SYwFZYMOpLbwZCNJ-1" style="edgeStyle=orthogonalEdgeStyle;rounded=0;orthogonalLoop=1;jettySize=auto;html=1;entryX=0;entryY=0.5;entryDx=0;entryDy=0;startArrow=none;startFill=0;endArrow=classic;endFill=1;" edge="1" parent="1" source="fWh1SYwFZYMOpLbwZCNJ-2" target="fWh1SYwFZYMOpLbwZCNJ-5">
          <mxGeometry relative="1" as="geometry" />
        </mxCell>
        <mxCell id="fWh1SYwFZYMOpLbwZCNJ-2" value="&lt;font face=&quot;Verdana&quot; style=&quot;font-size: 8px&quot;&gt;&lt;span style=&quot;color: rgb(0 , 0 , 0) ; font-style: normal ; font-weight: 400 ; letter-spacing: normal ; text-align: center ; text-indent: 0px ; text-transform: none ; word-spacing: 0px ; display: inline ; float: none&quot;&gt;ZgwBesluit&lt;/span&gt;&lt;br&gt;&lt;/font&gt;" style="strokeWidth=1;html=1;shape=mxgraph.flowchart.document2;whiteSpace=wrap;size=0.25;shadow=1;fillColor=#f8cecc;strokeColor=#b85450;" vertex="1" parent="1">
          <mxGeometry x="70" y="1010" width="100" height="60" as="geometry" />
        </mxCell>
        <mxCell id="fWh1SYwFZYMOpLbwZCNJ-3" value="&lt;font face=&quot;Verdana&quot; style=&quot;font-size: 8px&quot;&gt;(Param) ZdsBesluit&lt;br&gt;&lt;/font&gt;" style="strokeWidth=1;html=1;shape=mxgraph.flowchart.document2;whiteSpace=wrap;size=0.25;shadow=1;fillColor=#f8cecc;strokeColor=#b85450;sketch=1;" vertex="1" parent="1">
          <mxGeometry x="71.71" y="820" width="100" height="60" as="geometry" />
        </mxCell>
        <mxCell id="fWh1SYwFZYMOpLbwZCNJ-4" style="edgeStyle=orthogonalEdgeStyle;rounded=0;orthogonalLoop=1;jettySize=auto;html=1;entryX=0;entryY=0.5;entryDx=0;entryDy=0;entryPerimeter=0;" edge="1" parent="1" source="fWh1SYwFZYMOpLbwZCNJ-5" target="fWh1SYwFZYMOpLbwZCNJ-12">
          <mxGeometry relative="1" as="geometry" />
        </mxCell>
        <mxCell id="fWh1SYwFZYMOpLbwZCNJ-5" value="ENRICH zgwBesluit" style="whiteSpace=wrap;html=1;rounded=0;shadow=1;labelBackgroundColor=none;strokeWidth=1;fontFamily=Verdana;fontSize=8;align=center;fillColor=#fff2cc;strokeColor=#d6b656;sketch=0;" vertex="1" parent="1">
          <mxGeometry x="370.0000000000002" y="1020" width="120" height="40" as="geometry" />
        </mxCell>
        <mxCell id="fWh1SYwFZYMOpLbwZCNJ-6" style="edgeStyle=orthogonalEdgeStyle;rounded=0;orthogonalLoop=1;jettySize=auto;html=1;entryX=0.5;entryY=0;entryDx=0;entryDy=0;dashed=1;sketch=1;" edge="1" parent="1" source="fWh1SYwFZYMOpLbwZCNJ-7" target="fWh1SYwFZYMOpLbwZCNJ-5">
          <mxGeometry relative="1" as="geometry" />
        </mxCell>
        <mxCell id="fWh1SYwFZYMOpLbwZCNJ-7" value="" style="shape=parallelogram;html=1;strokeWidth=1;perimeter=parallelogramPerimeter;whiteSpace=wrap;rounded=1;arcSize=12;size=0.23;shadow=1;fillColor=#f8cecc;strokeColor=#b85450;sketch=1;" vertex="1" parent="1">
          <mxGeometry x="251.70999999999998" y="820" width="100" height="60" as="geometry" />
        </mxCell>
        <mxCell id="fWh1SYwFZYMOpLbwZCNJ-8" style="edgeStyle=orthogonalEdgeStyle;rounded=0;orthogonalLoop=1;jettySize=auto;html=1;entryX=0;entryY=0.5;entryDx=0;entryDy=0;dashed=1;sketch=1;" edge="1" parent="1" source="fWh1SYwFZYMOpLbwZCNJ-3" target="fWh1SYwFZYMOpLbwZCNJ-7">
          <mxGeometry relative="1" as="geometry" />
        </mxCell>
        <mxCell id="fWh1SYwFZYMOpLbwZCNJ-9" style="edgeStyle=orthogonalEdgeStyle;rounded=0;orthogonalLoop=1;jettySize=auto;html=1;entryX=0;entryY=0.5;entryDx=0;entryDy=0;dashed=1;sketch=1;" edge="1" parent="1" source="fWh1SYwFZYMOpLbwZCNJ-10" target="fWh1SYwFZYMOpLbwZCNJ-11">
          <mxGeometry relative="1" as="geometry" />
        </mxCell>
        <mxCell id="fWh1SYwFZYMOpLbwZCNJ-10" value="&lt;font face=&quot;Verdana&quot; style=&quot;font-size: 8px&quot;&gt;&lt;span style=&quot;color: rgb(0 , 0 , 0) ; font-style: normal ; font-weight: 400 ; letter-spacing: normal ; text-align: center ; text-indent: 0px ; text-transform: none ; word-spacing: 0px ; display: inline ; float: none&quot;&gt;(Param) ZgwBesluit&lt;/span&gt;&lt;br&gt;&lt;/font&gt;" style="strokeWidth=1;html=1;shape=mxgraph.flowchart.document2;whiteSpace=wrap;size=0.25;shadow=1;fillColor=#f8cecc;strokeColor=#b85450;sketch=1;" vertex="1" parent="1">
          <mxGeometry x="70" y="740" width="100" height="60" as="geometry" />
        </mxCell>
        <mxCell id="fWh1SYwFZYMOpLbwZCNJ-11" value="" style="shape=parallelogram;html=1;strokeWidth=1;perimeter=parallelogramPerimeter;whiteSpace=wrap;rounded=1;arcSize=12;size=0.23;shadow=1;fillColor=#f8cecc;strokeColor=#b85450;sketch=1;" vertex="1" parent="1">
          <mxGeometry x="251.71000000000004" y="740" width="100" height="60" as="geometry" />
        </mxCell>
        <mxCell id="fWh1SYwFZYMOpLbwZCNJ-12" value="&lt;font face=&quot;Verdana&quot; style=&quot;font-size: 8px&quot;&gt;&lt;span style=&quot;color: rgb(0 , 0 , 0) ; font-style: normal ; font-weight: 400 ; letter-spacing: normal ; text-align: center ; text-indent: 0px ; text-transform: none ; word-spacing: 0px ; display: inline ; float: none&quot;&gt;zgwBesluit&lt;/span&gt;&lt;br&gt;&lt;/font&gt;" style="strokeWidth=1;html=1;shape=mxgraph.flowchart.document2;whiteSpace=wrap;size=0.25;shadow=1;fillColor=#f8cecc;strokeColor=#b85450;" vertex="1" parent="1">
          <mxGeometry x="690" y="1010" width="100" height="60" as="geometry" />
        </mxCell>
        <mxCell id="fWh1SYwFZYMOpLbwZCNJ-13" style="edgeStyle=orthogonalEdgeStyle;rounded=0;orthogonalLoop=1;jettySize=auto;html=1;entryX=0;entryY=0.5;entryDx=0;entryDy=0;dashed=1;sketch=1;" edge="1" parent="1" source="fWh1SYwFZYMOpLbwZCNJ-14" target="fWh1SYwFZYMOpLbwZCNJ-16">
          <mxGeometry relative="1" as="geometry" />
        </mxCell>
        <mxCell id="fWh1SYwFZYMOpLbwZCNJ-14" value="&lt;font face=&quot;Verdana&quot; style=&quot;font-size: 8px&quot;&gt;&lt;span style=&quot;color: rgb(0 , 0 , 0) ; font-style: normal ; font-weight: 400 ; letter-spacing: normal ; text-align: center ; text-indent: 0px ; text-transform: none ; word-spacing: 0px ; display: inline ; float: none&quot;&gt;(Param) Toelichting&lt;/span&gt;&lt;br&gt;&lt;/font&gt;" style="strokeWidth=1;html=1;shape=mxgraph.flowchart.document2;whiteSpace=wrap;size=0.25;shadow=1;fillColor=#f8cecc;strokeColor=#b85450;sketch=1;" vertex="1" parent="1">
          <mxGeometry x="71.71" y="900" width="100" height="60" as="geometry" />
        </mxCell>
        <mxCell id="fWh1SYwFZYMOpLbwZCNJ-15" style="edgeStyle=orthogonalEdgeStyle;rounded=0;sketch=1;orthogonalLoop=1;jettySize=auto;html=1;entryX=0.5;entryY=0;entryDx=0;entryDy=0;startArrow=none;startFill=0;endArrow=classic;endFill=1;dashed=1;" edge="1" parent="1" source="fWh1SYwFZYMOpLbwZCNJ-16" target="fWh1SYwFZYMOpLbwZCNJ-5">
          <mxGeometry relative="1" as="geometry" />
        </mxCell>
        <mxCell id="fWh1SYwFZYMOpLbwZCNJ-16" value="" style="shape=parallelogram;html=1;strokeWidth=1;perimeter=parallelogramPerimeter;whiteSpace=wrap;rounded=1;arcSize=12;size=0.23;shadow=1;fillColor=#f8cecc;strokeColor=#b85450;sketch=1;" vertex="1" parent="1">
          <mxGeometry x="251.70999999999998" y="900" width="100" height="60" as="geometry" />
        </mxCell>
        <mxCell id="fWh1SYwFZYMOpLbwZCNJ-17" value="&lt;div style=&quot;font-size: 10px;&quot;&gt;&amp;lt;ZgwBesluit&amp;gt;&lt;br style=&quot;font-size: 10px;&quot;&gt;&lt;span style=&quot;white-space: pre; font-size: 10px;&quot;&gt;&#x9;&lt;/span&gt;&lt;font color=&quot;#999900&quot; style=&quot;font-size: 10px;&quot;&gt;&amp;lt;url&amp;gt;fromZgwBesluitParam&amp;lt;/url&amp;gt;&lt;/font&gt;&lt;br style=&quot;font-size: 10px;&quot;&gt;&lt;span style=&quot;white-space: pre; font-size: 10px;&quot;&gt;&#x9;&lt;/span&gt;&lt;font color=&quot;#ff3333&quot; style=&quot;font-size: 10px;&quot;&gt;&amp;lt;name&amp;gt;bla&amp;lt;/name&amp;gt;&lt;br style=&quot;font-size: 10px;&quot;&gt;&lt;/font&gt;&lt;span style=&quot;white-space: pre; font-size: 10px;&quot;&gt;&#x9;&lt;/span&gt;&lt;font color=&quot;#3399ff&quot; style=&quot;font-size: 10px;&quot;&gt;&amp;lt;desc&amp;gt;new&amp;lt;/desc&amp;gt;&lt;/font&gt;&lt;br style=&quot;font-size: 10px;&quot;&gt;&lt;/div&gt;&lt;div style=&quot;font-size: 10px;&quot;&gt;&lt;font style=&quot;font-size: 10px;&quot;&gt;&lt;span style=&quot;color: rgb(51, 153, 255); white-space: pre;&quot;&gt;&#x9;&lt;/span&gt;&lt;font color=&quot;#00cc00&quot;&gt;&amp;lt;toelichting&amp;gt;Bad Toelichting&amp;lt;/toelichting&lt;/font&gt;&lt;br&gt;&lt;/font&gt;&lt;/div&gt;&lt;div style=&quot;font-size: 10px;&quot;&gt;&amp;lt;/ZgwBesluit&lt;/div&gt;" style="text;html=1;strokeColor=none;fillColor=none;align=left;verticalAlign=middle;whiteSpace=wrap;rounded=0;fontSize=10;" vertex="1" parent="1">
          <mxGeometry x="810" y="990" width="230" height="100" as="geometry" />
        </mxCell>
        <mxCell id="fWh1SYwFZYMOpLbwZCNJ-18" value="" style="edgeStyle=orthogonalEdgeStyle;rounded=0;orthogonalLoop=1;jettySize=auto;html=1;dashed=1;sketch=1;" edge="1" parent="1" source="fWh1SYwFZYMOpLbwZCNJ-11">
          <mxGeometry relative="1" as="geometry">
            <mxPoint x="340" y="770" as="sourcePoint" />
            <mxPoint x="430" y="1020" as="targetPoint" />
          </mxGeometry>
        </mxCell>
        <mxCell id="fWh1SYwFZYMOpLbwZCNJ-19" value="&lt;font color=&quot;#00cc00&quot; style=&quot;font-size: 10px;&quot;&gt;&quot;Bad Toelichting&quot;&lt;/font&gt;" style="text;html=1;strokeColor=none;fillColor=none;align=left;verticalAlign=middle;whiteSpace=wrap;rounded=0;fontSize=10;" vertex="1" parent="1">
          <mxGeometry x="-130" y="910" width="90" height="40" as="geometry" />
        </mxCell>
        <mxCell id="fWh1SYwFZYMOpLbwZCNJ-20" value="&lt;div&gt;&amp;lt;xsl:copy-of select=&quot;zgw:WrapNullOrSkip(&#39;url&#39;, &#39;skip&#39;, zgw:FromOrderedSource(&lt;/div&gt;&lt;div&gt;&amp;nbsp; &amp;nbsp; &amp;nbsp; &amp;nbsp; &amp;nbsp; &amp;nbsp; &amp;nbsp; &amp;nbsp; &amp;nbsp; &amp;nbsp; $Url,&amp;nbsp;&lt;/div&gt;&lt;div&gt;&amp;nbsp; &amp;nbsp; &amp;nbsp; &amp;nbsp; &amp;nbsp; &amp;nbsp; &amp;nbsp; &amp;nbsp; &amp;nbsp; &amp;nbsp; &lt;font color=&quot;#999900&quot;&gt;&lt;b&gt;$ZgwBesluit&lt;/b&gt;/ZgwBesluit/url,&lt;/font&gt;&amp;nbsp;&lt;/div&gt;&lt;div&gt;&amp;nbsp; &amp;nbsp; &amp;nbsp; &amp;nbsp; &amp;nbsp; &amp;nbsp; &amp;nbsp; &amp;nbsp; &amp;nbsp; &amp;nbsp; $ZdsBesluit/object/url,&amp;nbsp;&lt;span style=&quot;background-color: initial;&quot;&gt;&amp;nbsp; &amp;nbsp; &amp;nbsp; &amp;nbsp; &amp;nbsp; &amp;nbsp; &amp;nbsp; &amp;nbsp; &amp;nbsp; &amp;nbsp; &lt;br&gt;&lt;span style=&quot;white-space: pre;&quot;&gt;&#x9;&lt;/span&gt;&lt;span style=&quot;white-space: pre;&quot;&gt;&#x9;&lt;/span&gt;&amp;nbsp; &amp;nbsp; ZgwBesluit/url))&quot;/&amp;gt;&lt;/span&gt;&lt;/div&gt;" style="text;html=1;strokeColor=none;fillColor=none;align=left;verticalAlign=middle;whiteSpace=wrap;rounded=0;" vertex="1" parent="1">
          <mxGeometry x="160" y="1120" width="450" height="80" as="geometry" />
        </mxCell>
        <mxCell id="fWh1SYwFZYMOpLbwZCNJ-21" value="&lt;div style=&quot;font-size: 10px;&quot;&gt;&amp;lt;ZgwBesluit&amp;gt;&lt;br style=&quot;font-size: 10px;&quot;&gt;&lt;span style=&quot;white-space: pre; font-size: 10px;&quot;&gt;&#x9;&lt;/span&gt;&lt;font color=&quot;#ff3333&quot;&gt;&amp;lt;name&amp;gt;bla&amp;lt;/name&amp;gt;&lt;/font&gt;&lt;/div&gt;&lt;div style=&quot;font-size: 10px;&quot;&gt;&amp;lt;/ZgwBesluit&lt;/div&gt;" style="text;html=1;strokeColor=none;fillColor=none;align=left;verticalAlign=middle;whiteSpace=wrap;rounded=0;fontSize=10;" vertex="1" parent="1">
          <mxGeometry x="-134.14" y="1010" width="140" height="60" as="geometry" />
        </mxCell>
        <mxCell id="fWh1SYwFZYMOpLbwZCNJ-22" value="&lt;div style=&quot;font-size: 10px;&quot;&gt;&amp;lt;ZgwBesluit&amp;gt;&lt;br style=&quot;font-size: 10px;&quot;&gt;&lt;span style=&quot;white-space: pre; font-size: 10px;&quot;&gt;&#x9;&lt;/span&gt;&lt;font color=&quot;#999900&quot; style=&quot;font-size: 10px;&quot;&gt;&amp;lt;url&amp;gt;fromZgwBesluitParam&amp;lt;/url&amp;gt;&lt;/font&gt;&lt;br style=&quot;font-size: 10px;&quot;&gt;&lt;span style=&quot;white-space: pre; font-size: 10px;&quot;&gt;&#x9;&lt;/span&gt;&amp;lt;name&amp;gt;new&amp;lt;/name&amp;gt;&lt;br style=&quot;font-size: 10px;&quot;&gt;&lt;/div&gt;&lt;div style=&quot;font-size: 10px;&quot;&gt;&amp;lt;/ZgwBesluit&lt;/div&gt;" style="text;html=1;strokeColor=none;fillColor=none;align=left;verticalAlign=middle;whiteSpace=wrap;rounded=0;fontSize=10;" vertex="1" parent="1">
          <mxGeometry x="-134.14" y="735" width="198.29" height="70" as="geometry" />
        </mxCell>
        <mxCell id="fWh1SYwFZYMOpLbwZCNJ-23" value="&lt;div style=&quot;font-size: 10px;&quot;&gt;&amp;lt;object StUF:entiteittype=&quot;BSL&quot;&amp;gt;&lt;br style=&quot;font-size: 10px;&quot;&gt;&lt;span style=&quot;white-space: pre; font-size: 10px;&quot;&gt;&#x9;&lt;/span&gt;&amp;lt;url&amp;gt;old&amp;lt;/url&lt;br style=&quot;font-size: 10px;&quot;&gt;&lt;span style=&quot;white-space: pre; font-size: 10px;&quot;&gt;&#x9;&lt;/span&gt;&lt;font color=&quot;#3399ff&quot; style=&quot;font-size: 10px;&quot;&gt;&amp;lt;omschrijving&amp;gt;new&amp;lt;/omschrijving&amp;gt;&lt;/font&gt;&lt;br style=&quot;font-size: 10px;&quot;&gt;&lt;/div&gt;&lt;div style=&quot;font-size: 10px;&quot;&gt;&amp;lt;/object&amp;gt;&lt;/div&gt;" style="text;html=1;strokeColor=none;fillColor=none;align=left;verticalAlign=middle;whiteSpace=wrap;rounded=0;fontSize=10;" vertex="1" parent="1">
          <mxGeometry x="-130" y="820" width="190" height="60" as="geometry" />
        </mxCell>
        <mxCell id="fWh1SYwFZYMOpLbwZCNJ-24" value="&lt;div&gt;&amp;lt;xsl:copy-of select=&quot;zgw:WrapNullOrSkip(&#39;name&#39;, &#39;skip&#39;, zgw:FromOrderedSource(&lt;/div&gt;&lt;div&gt;&amp;nbsp; &amp;nbsp; &amp;nbsp; &amp;nbsp; &amp;nbsp; &amp;nbsp; &amp;nbsp; &amp;nbsp; &amp;nbsp; &amp;nbsp; $Name,&amp;nbsp;&lt;/div&gt;&lt;div&gt;&amp;nbsp; &amp;nbsp; &amp;nbsp; &amp;nbsp; &amp;nbsp; &amp;nbsp; &amp;nbsp; &amp;nbsp; &amp;nbsp; &amp;nbsp; $ZgwBesluit/ZgwBesluit/name,&amp;nbsp;&lt;/div&gt;&lt;div&gt;&amp;nbsp; &amp;nbsp; &amp;nbsp; &amp;nbsp; &amp;nbsp; &amp;nbsp; &amp;nbsp; &amp;nbsp; &amp;nbsp; &amp;nbsp; $ZdsBesluit/object/name,&amp;nbsp;&lt;span style=&quot;background-color: initial;&quot;&gt;&amp;nbsp; &amp;nbsp; &amp;nbsp; &amp;nbsp; &amp;nbsp; &amp;nbsp; &amp;nbsp; &amp;nbsp; &amp;nbsp; &amp;nbsp; &lt;br&gt;&lt;span style=&quot;white-space: pre;&quot;&gt;&#x9;&lt;/span&gt;&lt;span style=&quot;white-space: pre;&quot;&gt;&#x9;&lt;/span&gt;&amp;nbsp; &amp;nbsp; &lt;font color=&quot;#ff3333&quot;&gt;ZgwBesluit/name&lt;/font&gt;))&quot;/&amp;gt;&lt;/span&gt;&lt;/div&gt;" style="text;html=1;strokeColor=none;fillColor=none;align=left;verticalAlign=middle;whiteSpace=wrap;rounded=0;" vertex="1" parent="1">
          <mxGeometry x="160" y="1200" width="450" height="80" as="geometry" />
        </mxCell>
        <mxCell id="fWh1SYwFZYMOpLbwZCNJ-25" value="&lt;div&gt;&amp;lt;xsl:copy-of select=&quot;zgw:WrapNullOrSkip(&#39;desc&#39;, &#39;skip&#39;, zgw:FromOrderedSource(&lt;/div&gt;&lt;div&gt;&amp;nbsp; &amp;nbsp; &amp;nbsp; &amp;nbsp; &amp;nbsp; &amp;nbsp; &amp;nbsp; &amp;nbsp; &amp;nbsp; &amp;nbsp; $Desc,&amp;nbsp;&lt;/div&gt;&lt;div&gt;&amp;nbsp; &amp;nbsp; &amp;nbsp; &amp;nbsp; &amp;nbsp; &amp;nbsp; &amp;nbsp; &amp;nbsp; &amp;nbsp; &amp;nbsp; $ZgwBesluit/ZgwBesluit/desc,&amp;nbsp;&lt;/div&gt;&lt;div&gt;&amp;nbsp; &amp;nbsp; &amp;nbsp; &amp;nbsp; &amp;nbsp; &amp;nbsp; &amp;nbsp; &amp;nbsp; &amp;nbsp; &amp;nbsp; &lt;font color=&quot;#3399ff&quot;&gt;$ZdsBesluit/object/omschrijving&lt;/font&gt;,&amp;nbsp;&lt;span style=&quot;background-color: initial;&quot;&gt;&amp;nbsp; &amp;nbsp; &amp;nbsp; &amp;nbsp; &amp;nbsp; &amp;nbsp; &amp;nbsp; &amp;nbsp; &amp;nbsp; &amp;nbsp; &lt;br&gt;&lt;span style=&quot;white-space: pre;&quot;&gt;&#x9;&lt;/span&gt;&lt;span style=&quot;white-space: pre;&quot;&gt;&#x9;&lt;/span&gt;&amp;nbsp; &amp;nbsp; ZgwBesluit/desc))&quot;/&amp;gt;&lt;/span&gt;&lt;/div&gt;" style="text;html=1;strokeColor=none;fillColor=none;align=left;verticalAlign=middle;whiteSpace=wrap;rounded=0;" vertex="1" parent="1">
          <mxGeometry x="160" y="1280" width="520" height="80" as="geometry" />
        </mxCell>
        <mxCell id="fWh1SYwFZYMOpLbwZCNJ-26" value="&lt;div&gt;&amp;lt;xsl:copy-of select=&quot;zgw:WrapNullOrSkip(&#39;toelichting&#39;, &#39;skip&#39;, zgw:FromOrderedSource(&lt;/div&gt;&lt;div&gt;&amp;nbsp; &amp;nbsp; &amp;nbsp; &amp;nbsp; &amp;nbsp; &amp;nbsp; &amp;nbsp; &amp;nbsp; &amp;nbsp; &amp;nbsp; $Toelichting,&amp;nbsp;&lt;/div&gt;&lt;div&gt;&amp;nbsp; &amp;nbsp; &amp;nbsp; &amp;nbsp; &amp;nbsp; &amp;nbsp; &amp;nbsp; &amp;nbsp; &amp;nbsp; &amp;nbsp; $ZgwBesluit/ZgwBesluit/toelichting,&amp;nbsp;&lt;/div&gt;&lt;div&gt;&amp;nbsp; &amp;nbsp; &amp;nbsp; &amp;nbsp; &amp;nbsp; &amp;nbsp; &amp;nbsp; &amp;nbsp; &amp;nbsp; &amp;nbsp; &lt;font color=&quot;#3399ff&quot;&gt;&#39; &#39;&lt;/font&gt;,&amp;nbsp;&lt;span style=&quot;background-color: initial;&quot;&gt;&amp;nbsp; &amp;nbsp; &amp;nbsp; &amp;nbsp; &amp;nbsp; &amp;nbsp; &amp;nbsp; &amp;nbsp; &amp;nbsp; &amp;nbsp; &lt;br&gt;&lt;span style=&quot;white-space: pre;&quot;&gt;&#x9;&lt;/span&gt;&lt;span style=&quot;white-space: pre;&quot;&gt;&#x9;&lt;/span&gt;&amp;nbsp; &amp;nbsp; ZgwBesluit/toelichting))&quot;/&amp;gt;&lt;/span&gt;&lt;/div&gt;" style="text;html=1;strokeColor=none;fillColor=none;align=left;verticalAlign=middle;whiteSpace=wrap;rounded=0;" vertex="1" parent="1">
          <mxGeometry x="160" y="1360" width="520" height="80" as="geometry" />
        </mxCell>
      </root>
    </mxGraphModel>
  </diagram>
</mxfile>
